<?xml version="1.0" encoding="UTF-8" standalone="no"?>
<svg
   version="1.1"
   viewBox="0 0 988 870.79999"
   id="svg4"
   sodipodi:docname="PGP Gates_White_new.svg"
   inkscape:version="1.3 (0e150ed6c4, 2023-07-21)"
   inkscape:export-filename="PGP Gates_White_new.svg"
   inkscape:export-xdpi="96"
   inkscape:export-ydpi="96"
   width="988"
   height="870.79999"
   xmlns:inkscape="http://www.inkscape.org/namespaces/inkscape"
   xmlns:sodipodi="http://sodipodi.sourceforge.net/DTD/sodipodi-0.dtd"
   xmlns="http://www.w3.org/2000/svg"
   xmlns:svg="http://www.w3.org/2000/svg">
  <sodipodi:namedview
     id="namedview4"
     pagecolor="#ffffff"
     bordercolor="#000000"
     borderopacity="0.25"
     inkscape:showpageshadow="2"
     inkscape:pageopacity="0.0"
     inkscape:pagecheckerboard="0"
     inkscape:deskcolor="#d1d1d1"
     inkscape:zoom="0.75277778"
     inkscape:cx="493.50554"
     inkscape:cy="435.05535"
     inkscape:window-width="1920"
     inkscape:window-height="1009"
     inkscape:window-x="1912"
     inkscape:window-y="-8"
     inkscape:window-maximized="1"
     inkscape:current-layer="svg4" />
  <defs
     id="defs1">
    <style
       id="style1">&#10;      .cls-1 {&#10;        fill: none;&#10;      }&#10;&#10;      .cls-2 {&#10;        fill: #231f20;&#10;      }&#10;&#10;      .cls-3 {&#10;        clip-path: url(#clippath);&#10;      }&#10;    </style>
    <clipPath
       id="clippath">
      <rect
         class="cls-1"
         x="46"
         y="104.6"
         width="988.09998"
         height="870.79999"
         id="rect1" />
    </clipPath>
  </defs>
  <!-- Generator: Adobe Illustrator 28.6.0, SVG Export Plug-In . SVG Version: 1.2.0 Build 709)  -->
  <g
     id="g4"
     transform="translate(-46,-104.6)">
    <g
       id="Layer_1"
       style="fill:#ffffff">
      <g
         id="g3"
         style="fill:#ffffff">
        <g
           class="cls-3"
           clip-path="url(#clippath)"
           id="g1"
           style="fill:#ffffff">
          <path
             class="cls-2"
             d="m 1021.9,327.9 c -3.8,2.2 -6.9,5.3 -9,9 H 834.5 c -2.2,-3.7 -5.3,-6.9 -8.9,-9 v -9.5 H 1022 v 9.5 z M 850,349.4 h 147.3 v 24.8 H 850 Z m 159.6,46.7 c -3.7,2.2 -6.9,5.2 -9,9 H 846.8 c -2.2,-3.8 -5.3,-6.9 -9,-9 v -9.5 h 171.9 v 9.5 z M 856,417.6 H 991.1 V 801.9 H 856 Z m 153.6,396.7 V 963.1 H 985 V 839 H 862.2 V 963.1 H 837.6 V 814.3 h 171.9 z M 972.7,963 H 874.5 V 851.4 h 98.2 z M 825.5,820.5 H 807 V 712.1 h 36.8 v 89.8 h -18.3 z m 0,142.6 h -571 V 832.9 H 273 V 944.5 H 530.7 V 436.2 c 4,-3 7.1,-7 9.2,-11.8 2.1,4.8 5.2,8.8 9.2,11.8 V 944.5 H 806.8 V 832.9 h 18.5 v 130.2 z m -583.2,0 H 217.7 V 839 H 94.9 V 963.1 H 70.3 V 814.3 h 171.9 v 148.8 z m -36.8,0 H 107.3 V 851.5 h 98.2 z M 223.9,801.9 H 88.9 V 417.6 h 135 z M 70.4,396.1 v -9.5 h 171.9 v 9.5 c -3.7,2.2 -6.9,5.2 -8.9,9 H 79.5 c -2.2,-3.8 -5.3,-6.9 -9,-9 M 230,374.2 H 82.7 V 349.4 H 230 Z M 67.2,337 c -2.2,-3.7 -5.2,-6.9 -9,-9 v -9.5 h 196.4 v 9.5 c -3.6,2.2 -6.8,5.3 -8.9,9 z m 15.5,-39.7 c 7.1,-3.1 12.8,-8.9 15.8,-16 h 115.6 c 3.1,7.1 8.8,12.9 15.9,16 v 8.8 H 82.7 Z m 61.4,-37.2 c 4.8,-2.2 9,-5.6 12.2,-9.8 3.1,4.2 7.5,7.7 12.4,9.8 v 8.7 h -24.6 z m -16.4,-34.7 -16.4,-49.5 h 38.9 v 49.5 z m 12.8,-80.5 h 31.7 c 2.8,7.2 7.4,13.5 13,18.6 h -57.7 c 5.6,-5.1 10.1,-11.4 13,-18.6 m 60.9,31 -16.3,49.5 h -22.5 v -49.5 z m 71.5,523.8 H 236.1 V 510.6 h 36.8 z m -36.7,102.2 v -89.8 h 36.9 V 820.5 H 254.6 V 801.9 Z M 322.1,510.6 V 932.1 H 285.2 V 510.6 h 9.2 l 9.2,37.2 9.2,-37.2 h 9.1 z m -9.2,-12.4 -9.2,-37.3 -9.2,37.3 h -9.1 v -49.5 h 36.8 v 49.5 h -9.1 z m -20,-87.6 c 8.7,0 14.6,9.2 14.6,9.2 4.6,6.9 11,12.6 18.4,16.3 h -23.7 c 0.7,-4.3 -2.8,-9.7 -2.8,-9.7 -1.7,1.7 -4,2.8 -6.6,2.8 -5,0 -9.1,-4.1 -9.1,-9.3 0,-5.2 4.1,-9.2 9.1,-9.2 m 40.1,-37.4 c 16.3,0 15.2,15.2 15.2,18.7 0,3.5 -2.7,6.2 -6.1,6.2 -3.4,0 -6.1,-2.9 -6.1,-6.2 0,0 -14.9,18.6 6.1,18.6 21,0 11.1,-3.1 14.6,-7.2 4.1,1.6 9,1.2 14.2,-1 -0.7,2.7 -1.1,5.3 -1.1,8.2 0,2.9 0.6,7 1.7,10.2 -6.3,5.3 -14.3,8.4 -23.2,8.4 -14.4,0 -28.9,-11.4 -34.6,-24.6 -1.2,-3.4 -2,-7.1 -2.2,-10.9 0.8,-11.3 10,-20.3 21.5,-20.3 m 38.3,137.2 V 932.1 H 334.3 V 510.6 h 9.2 l 9.2,37.2 9.1,-37.2 h 9.2 z m -9.2,-12.4 -9.1,-37.3 -9.2,37.3 h -9.2 v -49.5 h 36.9 v 49.5 h -9.2 z m 15.7,-66.7 c 1.7,1.8 3.4,3.3 5.4,4.6 h -12.7 c 2.6,-1.3 5,-2.8 7.3,-4.6 m 42.6,79.1 V 932.1 H 383.5 V 510.6 h 9.1 l 9.2,37.2 9.1,-37.2 h 9.2 z m -9.3,-12.4 -9.1,-37.3 -9.2,37.3 h -9.1 v -49.5 h 36.8 v 49.5 h -9.2 z M 383.5,403 c 3.4,1.2 5.7,-1.9 7.9,-4.1 2.1,-2.1 3.8,-2.8 3,-5.9 1.9,-0.7 3.8,-1 5.9,-1 17.2,0 29.6,31.4 47.6,44.1 h -36.5 c 4.4,-3.9 7.4,-9.8 7.4,-16.3 0,-18.7 -21.5,-9.2 -21.5,-9.2 5.1,0 9.2,4.1 9.2,9.2 0,5.1 -3.4,8.6 -8,9.2 -10.8,0 -14.2,-9.2 -14.2,-9.2 -1.6,-2.8 -2.5,-5.9 -2.5,-9.2 0,-3.3 0.6,-5.2 1.6,-7.6 m 86,107.6 V 932.1 H 432.5 V 510.6 h 9.2 l 9.1,37.2 9.2,-37.2 h 9.2 z m -9.2,-12.4 -9.2,-37.3 -9.1,37.3 h -9.2 v -49.5 h 36.9 v 49.5 h -9.2 z M 378,349.4 c 9.7,-22.8 27.1,-37.9 46.9,-37.9 19.8,0 21.1,4.5 24.6,10.1 -3.1,2.7 -2.3,6.4 -1.5,10.1 0.7,3.8 1.1,6.7 4.9,7.9 -0.2,8.3 -7.4,15.2 -15.7,15.2 -8.3,0 -13.7,-6.6 -15.3,-14.8 -6.6,16 3,27.2 15.3,27.2 12.3,0 24.8,-9.8 27.2,-22.7 8.5,9.9 21.8,14.2 33.8,7.2 7.4,-4.2 12.6,-12.3 12.6,-21.6 0,-20.4 -24.6,-12.4 -24.6,-12.4 7.5,1 12.3,5.5 12.3,12.4 0,6.9 -5.5,12.4 -12.3,12.4 -6.8,0 -11.7,-2.9 -14.6,-6.9 2.7,-2.6 1.7,-6 1,-9.6 -0.8,-3.6 -1.1,-6.5 -4.7,-7.8 1.3,-15.9 14.4,-28.4 30.6,-28.4 16.2,0 30.7,13.9 30.7,31 0,17.1 -34.2,47.6 -46.4,62.9 -3.6,-3.6 -10.4,-10.2 -21,-10.2 -10.6,0 -18.5,9.4 -18.5,18.7 0,15.9 18.5,6.2 18.5,6.2 -3.8,-0.5 -6.2,-2.9 -6.2,-6.2 0,-3.3 2.2,-5.7 5.1,-6.1 8.1,-1.2 14.3,4.7 17.1,10.5 -4.3,2.1 -4.7,6.3 -4.3,11 0.4,4.4 1.1,8 5.4,9.4 -2.3,7.3 -7.4,12.3 -15.9,12.3 -19.4,0 -34.5,-49.6 -62.6,-49.6 -28.1,0 -4.9,0.3 -7.3,1 5.6,-11.1 5.8,-22.5 -0.1,-28.3 -3.7,-3.6 -9.1,-4.4 -14.9,-2.9 m 145,-93.9 c 6.5,0 11.3,4.9 14,8.8 -1.3,-1 -2.9,-1.8 -5.4,-1.8 -4.5,0 -7,2.9 -7,5.8 0,7 8.8,9.2 15.3,19 6.4,-9.7 15.3,-12 15.3,-19 0,-7 -2.5,-5.8 -7,-5.8 -4.5,0 -4.2,0.8 -5.5,1.8 2.8,-3.9 7.6,-8.8 14.1,-8.8 6.5,0 9.1,4.2 9.1,9.3 0,12.6 -20.3,27.2 -26.1,46 -5.8,-18.8 -26,-33.4 -26,-46 0,-12.6 4,-9.3 9.1,-9.3 m 61.2,180.6 c 3.7,-2.4 6.9,-5.4 9.4,-9.1 2.6,3.7 5,6.8 7.9,9.1 z m 4.8,62 -9.1,-37.3 -9.2,37.3 h -9.2 v -49.5 h 36.9 v 49.5 h -9.2 z m -27.6,12.4 h 9.2 l 9.2,37.2 9.1,-37.2 h 9.2 V 932.1 H 561.2 V 510.6 Z m -52.1,-12.4 -9.2,-37.3 -9.2,37.3 h -9.1 v -49.5 h 36.8 v 49.5 h -9.1 z m -30.8,-62 c 2.8,-2.4 5.3,-5.4 7.8,-9.1 2.6,3.7 5.8,6.8 9.4,9.1 z m 3.2,74.4 h 9.1 l 9.2,37.2 9.2,-37.2 h 9.1 V 932.1 H 481.5 V 510.6 Z m 64.5,-113.1 c 2.8,-7.3 8.6,-9.1 11.7,-8.2 3.1,1 5.1,4.7 5.1,7 0,3.4 -2.4,5.6 -6.1,6.2 0,0 18.4,12.3 18.4,-6.2 0,-18.5 -6.4,-18.6 -18.4,-18.6 -12,0 -13.9,3.9 -16.9,10.5 -3.1,-6.6 -8.3,-10.5 -16.9,-10.5 -8.6,0 -18.4,11.7 -18.4,18.6 0,18.5 18.4,6.2 18.4,6.2 -3.8,-0.6 -6.2,-2.8 -6.2,-6.2 0,-3.4 2.1,-6 5.2,-7 2.9,-1 8.7,0.9 11.6,8.2 -1.7,1.1 -3,3 -3,5.3 v 6.2 c 0,2.5 1.4,4.5 3.4,5.6 -2.9,8.5 -10.9,14.6 -20.3,14.6 -9.4,0 -15.8,-4.1 -20,-14 3.5,-2.3 3.2,-6.1 2.9,-10.3 -0.4,-4.6 -1.5,-8.5 -6.2,-9.6 2.1,-10.3 41.1,-35.9 49.4,-64.3 8.3,28.4 47.4,54 49.4,64.3 -4.7,1.2 -5.8,5 -6.2,9.6 -0.4,4.2 -0.7,8.1 2.9,10.3 -4.3,9.8 -12.1,14 -20.1,14 -8,0 -17.4,-6.1 -20.3,-14.6 2.1,-1.1 3.4,-3.1 3.4,-5.6 v -6.2 c 0,-2.3 -1.2,-4.2 -2.9,-5.3 m 35.3,-107.8 c 16.1,0 29.4,12.5 30.7,28.4 -3.7,1.3 -4,4.1 -4.7,7.8 -0.7,3.6 -1.8,7.1 0.9,9.6 -2.8,4 -7.3,6.9 -14.6,6.9 -7.3,0 -12.3,-5.5 -12.3,-12.4 0,-6.9 4.9,-11.4 12.3,-12.4 0,0 -24.6,-8.1 -24.6,12.4 0,20.5 5.3,17.4 12.7,21.6 12,7 25.4,2.8 33.8,-7.2 2.5,12.9 13.7,22.7 27.1,22.7 13.4,0 21.9,-11.2 15.3,-27.2 -1.6,8.3 -7,14.8 -15.3,14.8 -8.3,0 -15.5,-6.9 -15.7,-15.2 3.8,-1.2 4.3,-4 5,-7.9 0.7,-3.7 1.6,-7.5 -1.6,-10.1 3.4,-5.6 10.5,-10.1 24.7,-10.1 14.2,0 37.1,15.1 46.9,37.9 -5.9,-1.6 -11.2,-0.8 -14.9,2.9 -5.9,5.8 -5.7,17.2 -0.2,28.3 -2.3,-0.7 -4.7,-1 -7.2,-1 -28.1,0 -43.3,49.6 -62.7,49.6 -19.4,0 -13.7,-5 -15.8,-12.3 4.2,-1.5 4.9,-5 5.3,-9.4 0.4,-4.7 0,-8.9 -4.2,-11 2.8,-5.8 8.9,-11.7 17,-10.5 3,0.4 5.1,3 5.1,6.1 0,3.1 -2.3,5.7 -6.1,6.2 0,0 18.4,9.8 18.4,-6.2 0,-16 -7.8,-18.7 -18.4,-18.7 -10.6,0 -17.5,6.6 -21,10.2 -12.3,-15.3 -46.5,-41.5 -46.5,-62.9 0,-21.4 13.8,-31 30.7,-31 m 65.9,221 V 932.1 H 610.5 V 510.6 h 9.2 l 9.2,37.2 9.1,-37.2 h 9.2 z m -9.2,-12.4 -9.1,-37.3 -9.2,37.3 h -9.2 v -49.5 h 36.9 v 49.5 h -9.2 z m 58.3,12.4 V 932.1 H 659.7 V 510.6 h 9.1 l 9.2,37.2 9.1,-37.2 h 9.2 z m -9.3,-12.4 -9.1,-37.3 -9.2,37.3 h -9.1 v -49.5 h 36.8 v 49.5 h -9.2 z m 9.3,-95.2 c 1,2.4 1.5,4.9 1.5,7.6 0,2.7 -0.9,6.5 -2.5,9.2 0,0 -3.3,9.2 -14.2,9.2 -4.4,-0.6 -7.9,-4.5 -7.9,-9.2 0,-4.7 4.1,-9.2 9.2,-9.2 0,0 -21.5,-9.4 -21.5,9.2 0,18.6 2.8,12.4 7.4,16.3 h -36.6 c 18,-12.8 30.5,-44.1 47.7,-44.1 17.2,0 4,0.3 5.9,1 -0.9,3.1 0.9,3.8 3,5.9 2.3,2.3 4.5,5.3 8,4.1 m 5.7,28.5 c 2.3,1.8 4.8,3.3 7.4,4.6 h -12.7 c 2,-1.3 3.7,-2.8 5.3,-4.6 m 43.4,79.1 V 932.1 H 708.7 V 510.6 h 9.1 l 9.2,37.2 9.2,-37.2 h 9.2 z m -9.2,-12.4 -9.2,-37.3 -9.2,37.3 h -9.1 v -49.5 h 36.9 v 49.5 h -9.2 z m -27.1,-95.8 c 5.1,2.2 10,2.6 14.1,1 3.4,4 9,7.2 14.6,7.2 21.1,0 6.2,-18.6 6.2,-18.6 0,3.3 -2.8,6.2 -6.2,6.2 -3.4,0 -6.1,-2.9 -6.1,-6.2 0,-3.3 -1,-18.7 15.3,-18.7 16.3,0 20.7,9 21.4,20.3 0,3.8 -0.9,7.5 -2.1,10.9 -5.7,13.2 -20.3,24.6 -34.7,24.6 -14.4,0 -16.8,-3.1 -23.2,-8.4 1.1,-3.2 1.8,-6.6 1.8,-10.2 0,-3.6 -0.4,-5.5 -1.1,-8.2 m 85.4,108.3 V 932.1 H 757.9 V 510.6 h 9.1 l 9.2,37.2 9.2,-37.2 h 9.1 z m -9.2,-12.4 -9.2,-37.3 -9.2,37.3 H 758 v -49.5 h 36.8 v 49.5 h -9.1 z m -13.1,-78.4 c 0,0 5.9,-9.2 14.7,-9.2 8.8,0 9.2,4.1 9.2,9.2 0,5.1 -4.1,9.3 -9.2,9.3 -5.1,0 -4.8,-1.1 -6.5,-2.8 0,0 -3.4,5.4 -2.7,9.7 h -23.8 c 7.4,-3.7 13.7,-9.4 18.4,-16.3 m 34.5,90.9 h 36.8 V 699.7 H 807 Z m 43,-213.3 c 7,-3.1 12.7,-8.9 15.8,-16 h 115.5 c 3.1,7.1 8.8,12.9 15.9,16 v 8.8 H 849.9 v -8.8 z m 61.4,-37.2 c 4.8,-2.2 9,-5.6 12.3,-9.8 3,4.2 7.4,7.7 12.3,9.8 v 8.7 H 911.4 Z M 895,225.4 878.6,175.9 h 38.9 v 49.5 z m 12.7,-80.5 h 31.7 c 2.8,7.2 7.4,13.5 13,18.6 h -57.7 c 5.6,-5.1 10.1,-11.4 13,-18.6 m 60.9,31 -16.3,49.5 h -22.6 v -49.5 z m 41,130.1 v -18.6 c -10.2,0 -18.5,-8.4 -18.5,-18.6 h -43 v -18.6 c -8,0 -14.8,-5.2 -17.3,-12.4 h 29.6 L 985,163.4 c -13.7,0 -25.6,-7.6 -31.9,-18.6 h 7.4 v -12.5 h -30.8 v -9.2 h 12.4 c 0,-10.3 -8.3,-18.6 -18.5,-18.6 -10.2,0 -18.4,8.3 -18.4,18.6 h 12.3 v 9.2 h -30.7 v 12.5 h 7.4 c -6.4,11 -18.3,18.6 -32,18.6 l 24.6,74.4 h 29.6 c -2.5,7.2 -9.3,12.4 -17.3,12.4 v 18.6 h -43 c 0,10.2 -8.3,18.6 -18.5,18.6 V 306 H 813 v 31 c 6.8,0 12.4,5.6 12.4,12.5 h 12.2 v 26 h -12.2 v 29.8 c 6.7,0 12.2,5.6 12.2,12.4 h 6.1 v 80.6 h -36.8 v -62 h -5.8 c 4.5,-3.9 7.4,-9.8 7.4,-16.3 0,-12 -9.6,-21.6 -21.5,-21.6 -11.9,0 -4.4,0.3 -6.4,0.9 l 0.2,-7.1 c 0,-19.1 -16.8,-30.8 -28,-31.6 -18.6,-1.4 -29,8.1 -32,22.9 -1.8,8.5 -6.6,9.9 -11.3,8.2 2.5,-4.3 0,-6.6 -2.9,-9.4 -2.9,-2.9 -5.1,-5.3 -9.4,-3 -2.9,-6.2 -3,-12.8 0,-16.1 2.2,-2.4 5.6,-2.6 9.1,-0.8 2.8,1.2 14.7,7.6 12,-2.5 -9.4,-35.5 -34.2,-60.7 -63.2,-60.7 -29,0 -22.5,4 -32,11 -4.7,-18.8 -21.5,-32.7 -41.7,-32.7 -20.2,0 -4.9,0.2 -7.4,0.6 2.8,-3.6 4.3,-8.1 4.3,-13 0,-12 -9.6,-21.7 -21.4,-21.7 -11.8,0 -13.1,3.2 -16.9,8.3 -3.9,-5 -10,-8.3 -16.9,-8.3 -11.9,0 -21.4,9.7 -21.4,21.7 0,12 1.6,9.3 4.3,13 -2.5,-0.4 -4.9,-0.6 -7.5,-0.6 -20,0 -37,14 -41.7,32.7 -9.4,-7 -20.3,-11 -31.9,-11 -29,0 -53.8,25.2 -63.4,60.7 -2.7,10 9.4,3.6 12.1,2.5 3.5,-1.8 7,-1.6 9.2,0.8 3,3.3 2.9,9.9 -0.1,16.1 -4.2,-2.5 -6.6,0.1 -9.3,3 -2.9,2.9 -5.3,5.1 -2.9,9.4 -4.8,1.8 -9.5,0.4 -11.3,-8.2 -3,-14.8 -13.6,-24.3 -32,-22.9 -11.2,0.9 -28.1,12.6 -28.1,34.7 l 0.2,4 c -2,-0.6 -4.1,-0.9 -6.4,-0.9 -11.8,0 -21.4,9.6 -21.4,21.6 0,12 2.9,12.4 7.4,16.3 h -5.8 v 62 h -36.9 v -80.6 h 6.2 c 0,-6.8 5.5,-12.4 12.2,-12.4 v -29.8 h -12.2 v -26 h 12.2 c 0,-6.9 5.5,-12.5 12.3,-12.5 v -31 h -24.5 v -18.6 c -10.2,0 -18.5,-8.4 -18.5,-18.6 h -43 v -18.6 c -8,0 -14.7,-5.2 -17.3,-12.4 h 29.6 l 24.6,-74.4 c -13.7,0 -25.6,-7.6 -31.9,-18.6 h 7.3 v -12.5 h -30.7 v -9.2 h 12.3 c 0,-10.3 -8.3,-18.6 -18.5,-18.6 -10.2,0 -18.4,8.3 -18.4,18.6 h 12.3 v 9.2 h -30.7 v 12.5 h 7.3 c -6.3,11 -18.2,18.6 -31.9,18.6 l 24.6,74.4 h 29.6 c -2.5,7.2 -9.2,12.4 -17.3,12.4 v 18.6 H 88.9 c 0,10.2 -8.3,18.6 -18.5,18.6 V 306 H 45.9 v 31 c 6.8,0 12.2,5.6 12.2,12.5 h 12.3 v 26 H 58.1 v 29.8 c 6.8,0 12.3,5.6 12.3,12.4 h 6.2 V 802 H 58.1 v 173.5 h 963.7 V 802 h -18.5 V 417.7 h 6.2 c 0,-6.8 5.5,-12.4 12.3,-12.4 v -29.8 h -12.3 v -26 h 12.3 c 0,-6.9 5.4,-12.5 12.2,-12.5 v -31 h -24.5 z"
             id="path1"
             style="fill:#ffffff" />
        </g>
        <rect
           class="cls-2"
           x="151.3"
           y="446"
           width="9.8000002"
           height="324.70001"
           id="rect2"
           style="fill:#ffffff" />
        <rect
           class="cls-2"
           x="918.40002"
           y="444.60001"
           width="9.8000002"
           height="324.70001"
           id="rect3"
           style="fill:#ffffff" />
      </g>
    </g>
  </g>
</svg>
